<svg width="24" height="24" viewBox="0 0 24 24" fill="none" xmlns="http://www.w3.org/2000/svg">
<path d="M0 4C0 1.79086 1.79086 0 4 0H20C22.2091 0 24 1.79086 24 4V20C24 22.2091 22.2091 24 20 24H4C1.79086 24 0 22.2091 0 20V4Z" fill="#DB143D"/>
<path d="M18 8.48667C17.9867 8.48667 17.9667 8.48667 17.9467 8.48667C14.42 8.13333 10.9 8 7.41332 8.35333L6.05332 8.48667C5.77332 8.51333 5.52666 8.31333 5.49999 8.03333C5.47332 7.75333 5.67332 7.51333 5.94666 7.48667L7.30666 7.35333C10.8533 6.99333 14.4467 7.13333 18.0467 7.48667C18.32 7.51333 18.52 7.76 18.4933 8.03333C18.4733 8.29333 18.2533 8.48667 18 8.48667Z" fill="white"/>
<path d="M9.66668 7.81333C9.64001 7.81333 9.61334 7.81333 9.58001 7.80667C9.31334 7.76 9.12668 7.5 9.17334 7.23333L9.32001 6.36C9.42668 5.72 9.57334 4.83333 11.1267 4.83333H12.8733C14.4333 4.83333 14.58 5.75333 14.68 6.36667L14.8267 7.23333C14.8733 7.50667 14.6867 7.76667 14.42 7.80667C14.1467 7.85333 13.8867 7.66667 13.8467 7.4L13.7 6.53333C13.6067 5.95333 13.5867 5.84 12.88 5.84H11.1333C10.4267 5.84 10.4133 5.93333 10.3133 6.52667L10.16 7.39333C10.12 7.64 9.90668 7.81333 9.66668 7.81333Z" fill="white"/>
<path d="M14.14 19.1667H9.86002C7.53335 19.1667 7.44002 17.88 7.36669 16.84L6.93335 10.1267C6.91335 9.85333 7.12669 9.61333 7.40002 9.59333C7.68002 9.58 7.91335 9.78667 7.93335 10.06L8.36669 16.7733C8.44002 17.7867 8.46669 18.1667 9.86002 18.1667H14.14C15.54 18.1667 15.5667 17.7867 15.6334 16.7733L16.0667 10.06C16.0867 9.78667 16.3267 9.58 16.6 9.59333C16.8734 9.61333 17.0867 9.84667 17.0667 10.1267L16.6334 16.84C16.56 17.88 16.4667 19.1667 14.14 19.1667Z" fill="white"/>
<path d="M13.1067 15.5H10.8867C10.6133 15.5 10.3867 15.2733 10.3867 15C10.3867 14.7267 10.6133 14.5 10.8867 14.5H13.1067C13.38 14.5 13.6067 14.7267 13.6067 15C13.6067 15.2733 13.38 15.5 13.1067 15.5Z" fill="white"/>
<path d="M13.6667 12.8333H10.3333C10.06 12.8333 9.83333 12.6067 9.83333 12.3333C9.83333 12.06 10.06 11.8333 10.3333 11.8333H13.6667C13.94 11.8333 14.1667 12.06 14.1667 12.3333C14.1667 12.6067 13.94 12.8333 13.6667 12.8333Z" fill="white"/>
</svg>
