<svg width="24" height="24" viewBox="0 0 24 24" fill="none" xmlns="http://www.w3.org/2000/svg">
<path d="M0 4C0 1.79086 1.79086 0 4 0H20C22.2091 0 24 1.79086 24 4V20C24 22.2091 22.2091 24 20 24H4C1.79086 24 0 22.2091 0 20V4Z" fill="#DFE3E6"/>
<path d="M14.16 18.8467H14.0733C11.1133 18.8467 9.68667 17.68 9.44 15.0667C9.41334 14.7933 9.61334 14.5467 9.89334 14.52C10.1667 14.4933 10.4133 14.7 10.44 14.9733C10.6333 17.0667 11.62 17.8467 14.08 17.8467H14.1667C16.88 17.8467 17.84 16.8867 17.84 14.1733V9.82667C17.84 7.11333 16.88 6.15333 14.1667 6.15333H14.08C11.6067 6.15333 10.62 6.94667 10.44 9.08C10.4067 9.35333 10.18 9.56 9.89334 9.53333C9.61334 9.51333 9.41334 9.26667 9.43334 8.99333C9.66 6.34 11.0933 5.15333 14.0733 5.15333H14.16C17.4333 5.15333 18.8333 6.55333 18.8333 9.82667V14.1733C18.8333 17.4467 17.4333 18.8467 14.16 18.8467Z" fill="#373E45"/>
<path d="M13.92 12.5H5.33333C5.05999 12.5 4.83333 12.2733 4.83333 12C4.83333 11.7267 5.05999 11.5 5.33333 11.5H13.92C14.1933 11.5 14.42 11.7267 14.42 12C14.42 12.2733 14.2 12.5 13.92 12.5Z" fill="#373E45"/>
<path d="M12.4333 14.7333C12.3067 14.7333 12.18 14.6867 12.08 14.5867C11.8867 14.3933 11.8867 14.0733 12.08 13.88L13.96 12L12.08 10.12C11.8867 9.92667 11.8867 9.60667 12.08 9.41333C12.2733 9.22 12.5933 9.22 12.7867 9.41333L15.02 11.6467C15.2133 11.84 15.2133 12.16 15.02 12.3533L12.7867 14.5867C12.6867 14.6867 12.56 14.7333 12.4333 14.7333Z" fill="#373E45"/>
</svg>
